# xmcd CD database file generated by Grip 2.96
# 
# Track frame offsets:
#       150
#       15527
#       33665
#       51452
#       59731
#       73936
#       94677
#       104625
#       119855
#       135249
#       155147
#       171535
#       181261
#       188459
#       201134
#       215466
#       229429
#       248681
#       263842
#       286973
#       306419
# 
# Disc length: 4279 seconds
# 
# Revision: 0
# Processed by: cddbd v1.4PL0 Copyright (c) Steve Scherf et al.
# Submitted via: Grip 2.96
# 
DISCID=4b10b515
DTITLE=Various Artist - Bloodshot Records Sampler 2002
DYEAR=1900
DGENRE=
TTITLE0=Waco Brothers - Poison
TTITLE1=Neko Case - Deep Red Bells
TTITLE2=Pine Valley Cosmonauts - Hangman's Song
TTITLE3=The Meat Purveyors - Hey Little Sister
TTITLE4=Bottle Rockets - Mendocino
TTITLE5=Bobby Bare Jr. - I'll Be Around
TTITLE6=Rex Hobart and the Misery Boys - Gotta Get Back to Forgetting You
TTITLE7=Asylum Street Spankers - Monkey Rag
TTITLE8=Trailer Bride - Jesco
TTITLE9=Alejandro Escovedo - Velvet Guitar
TTITLE10=Kelly Hogan - Señor Don Gato
TTITLE11=Robbie Fulks - Sleeping on the Job of Love
TTITLE12=Jon Rauhouse - Circle the Wagons Babe
TTITLE13=Wayne Hancock - Track 49
TTITLE14=Winding Wheel - Ryan Adams
TTITLE15=Rico Bell - Calling Me Back
TTITLE16=Split Lip Rayfield - Kiss of Death
TTITLE17=The Yayhoos - Hunt You Down
TTITLE18=Kelly Hogan - Strayed
TTITLE19=Sadies - Empty the Chamber
TTITLE20=Old 97's - Ray Charles
EXTD=
EXTT0=
EXTT1=
EXTT2=
EXTT3=
EXTT4=
EXTT5=
EXTT6=
EXTT7=
EXTT8=
EXTT9=
EXTT10=
EXTT11=
EXTT12=
EXTT13=
EXTT14=
EXTT15=
EXTT16=
EXTT17=
EXTT18=
EXTT19=
EXTT20=
PLAYORDER=
